<svg height="485pt" viewBox="0 -42 485.8 485" width="485pt" xmlns="http://www.w3.org/2000/svg"><path d="m400.714844 226.109375h-147.816406v-110.382813c0-5.523437-4.476563-10-10-10-5.519532 0-10 4.476563-10 10v110.382813h-147.8125c-16.921876.015625-30.632813 13.730469-30.652344 30.652344v23.582031c0 5.523438 4.476562 10 10 10 5.519531 0 10-4.476562 10-10v-23.582031c.003906-5.882813 4.769531-10.648438 10.652344-10.652344h147.8125v38.964844c0 5.523437 4.480468 10 10 10 5.523437 0 10-4.476563 10-10v-38.964844h147.816406c5.878906.003906 10.648437 4.769531 10.652344 10.652344v23.582031c0 5.523438 4.476562 10 10 10 5.523437 0 10-4.476562 10-10v-23.582031c-.019532-16.921875-13.730469-30.636719-30.652344-30.652344zm0 0"/><g fill="none"><path d="m132.277344 85.539062c-11.042969 0-20-8.957031-20-20v-55.140624h-10c-11.042969 0-20 8.957031-20 20v65.140624c0 11.042969 8.957031 20 20 20h281.242187c11.046875 0 20-8.957031 20-20v-10zm0 0"/><path d="m239.359375 360.398438c-11.046875 0-20-8.953126-20-20v-55.136719h-10c-11.046875 0-20 8.953125-20 20v65.136719c0 11.046874 8.953125 20 20 20h67.082031c11.042969 0 20-8.953126 20-20v-10zm0 0"/><path d="m418.71875 360.398438c-11.042969 0-20-8.953126-20-20v-55.136719h-10c-11.042969 0-20 8.953125-20 20v65.136719c0 11.046874 8.957031 20 20 20h67.082031c11.042969 0 20-8.953126 20-20v-10zm0 0"/><path d="m60 360.398438c-11.046875 0-20-8.953126-20-20v-55.136719h-10c-11.046875 0-20 8.953125-20 20v65.136719c0 11.046874 8.953125 20 20 20h67.078125c11.046875 0 20-8.953126 20-20v-10zm0 0"/></g><path d="m383.519531 125.539062h-281.242187c-16.558594-.019531-29.980469-13.441406-30-30v-65.140624c.019531-16.558594 13.441406-29.980469 30-30h281.242187c16.5625.019531 29.984375 13.441406 30 30v65.140624c-.015625 16.558594-13.4375 29.980469-30 30zm-281.242187-105.140624c-5.519532.007812-9.992188 4.480468-10 10v65.140624c.007812 5.519532 4.480468 9.992188 10 10h281.242187c5.523438-.007812 9.996094-4.480468 10-10v-65.140624c-.003906-5.519532-4.476562-9.992188-10-10zm0 0"/><path d="m276.441406 400.398438h-67.082031c-16.558594-.015626-29.980469-13.4375-30-30v-65.136719c.019531-16.558594 13.441406-29.980469 30-30h67.082031c16.558594.019531 29.980469 13.441406 30 30v65.136719c-.019531 16.5625-13.441406 29.984374-30 30zm-67.082031-105.136719c-5.519531.007812-9.992187 4.480469-10 10v65.136719c.007813 5.523437 4.480469 9.996093 10 10h67.082031c5.519532-.003907 9.992188-4.476563 10-10v-65.136719c-.007812-5.519531-4.480468-9.992188-10-10zm0 0"/><path d="m455.800781 400.398438h-67.082031c-16.558594-.015626-29.980469-13.4375-30-30v-65.136719c.019531-16.558594 13.441406-29.980469 30-30h67.082031c16.558594.019531 29.980469 13.441406 30 30v65.136719c-.019531 16.5625-13.441406 29.984374-30 30zm-67.082031-105.136719c-5.519531.007812-9.992188 4.480469-10 10v65.136719c.007812 5.519531 4.480469 9.996093 10 10h67.082031c5.519531-.003907 9.992188-4.476563 10-10v-65.136719c-.007812-5.519531-4.480469-9.992188-10-10zm0 0"/><path d="m97.078125 400.398438h-67.078125c-16.5625-.015626-29.9804688-13.4375-30-30v-65.136719c.0195312-16.558594 13.4375-29.980469 30-30h67.078125c16.5625.019531 29.984375 13.441406 30 30v65.136719c-.015625 16.5625-13.4375 29.984374-30 30zm-67.078125-105.136719c-5.519531.007812-9.992188 4.480469-10 10v65.136719c.007812 5.523437 4.480469 9.996093 10 10h67.078125c5.523437-.003907 9.996094-4.476563 10-10v-65.136719c-.003906-5.519531-4.476563-9.992188-10-10zm0 0"/></svg>