<svg height="419pt" viewBox="0 -9 419.55413 419" width="419pt" xmlns="http://www.w3.org/2000/svg"><path d="m156.023438 353.625 13.863281-80.835938-99.886719-97.367187 138.042969-20.058594 36.671875-74.300781-34.9375-70.785156-61.734375 125.085937-138.042969 20.058594 99.886719 97.367187-23.578125 137.488282zm0 0" fill="none"/><path d="m333.246094 400.277344c-1.621094 0-3.21875-.394532-4.652344-1.148438l-118.816406-62.46875-118.816406 62.46875c-3.367188 1.769532-7.453126 1.476563-10.53125-.761718-3.082032-2.238282-4.621094-6.03125-3.980469-9.78125l22.695312-132.300782-96.125-93.699218c-2.726562-2.65625-3.707031-6.628907-2.53125-10.25 1.175781-3.621094 4.304688-6.257813 8.074219-6.804688l132.839844-19.300781 59.40625-120.378907c1.6875-3.414062 5.164062-5.574218 8.96875-5.574218 3.804687 0 7.28125 2.160156 8.964844 5.574218l59.410156 120.375 132.839844 19.296876c3.765624.550781 6.894531 3.1875 8.074218 6.808593 1.175782 3.617188.195313 7.589844-2.53125 10.25l-96.125 93.699219 22.691406 132.300781c.5 2.902344-.308593 5.882813-2.210937 8.136719-1.898437 2.253906-4.695313 3.554688-7.644531 3.554688zm-123.46875-84.917969c1.621094 0 3.21875.394531 4.652344 1.148437l105.535156 55.484376-20.15625-117.511719c-.554688-3.242188.519531-6.550781 2.878906-8.851563l85.378906-83.222656-117.988281-17.144531c-3.257813-.472657-6.074219-2.519531-7.53125-5.472657l-52.769531-106.917968-52.769532 106.917968c-1.457031 2.953126-4.269531 5-7.527343 5.472657l-117.992188 17.144531 85.378907 83.222656c2.359374 2.300782 3.433593 5.609375 2.875 8.851563l-20.152344 117.515625 105.535156-55.480469c1.433594-.757813 3.03125-1.152344 4.652344-1.15625zm0 0"/></svg>